<svg width="582" height="466" viewBox="0 0 582 466" fill="none" xmlns="http://www.w3.org/2000/svg">
<rect width="582" height="466" fill="#1E1E1E"/>
<g id="Frame 1">
<rect width="582" height="466" fill="white"/>
<g id="Vector 1" filter="url(#filter0_d_0_1)">
<path d="M292 404.12C289.291 401.072 287.725 397.496 284.222 395.12C279.623 391.999 275.08 388.79 270.5 385.62C260.565 378.742 252.358 371.028 243 363.675C237.961 359.716 233.731 355.121 230 349.897C225.314 343.337 217.821 339.162 213 332.62C209.154 327.4 204.706 323.044 200.222 318.453C194.532 312.627 190.149 305.451 184.056 300.12C180.321 296.852 177.227 291.165 174.222 287.12C169.569 280.856 165.242 273.718 161 267.12C153.547 255.526 143.247 243.607 139.5 230.12C136.587 219.633 134 210.107 134 199.119C134 193.776 133.316 188.014 134.778 182.897C135.694 179.689 135.783 176.027 136.5 172.731C137.188 169.564 139 166.891 139 163.619C139 153.161 146.142 144.222 152 135.897C159.654 125.02 171.793 116.347 183.556 110.119C195.128 103.993 206.589 99.106 218.778 94.1195C231.487 88.9203 245.516 90.1195 259 90.1195C282.302 90.1195 303.058 101.601 324.778 108.342C331.919 110.558 337.937 114.395 345.056 116.619C351.071 118.499 357.165 120.226 363.222 121.897C366.475 122.795 370.653 122.119 374 122.119C376.961 122.119 379.677 123.119 382.5 123.119C386 123.119 389.5 123.119 393 123.119" stroke="black" stroke-width="8" stroke-linecap="round"/>
</g>
</g>
<defs>
<filter id="filter0_d_0_1" x="125.84" y="85.992" width="275.16" height="330.128" filterUnits="userSpaceOnUse" color-interpolation-filters="sRGB">
<feFlood flood-opacity="0" result="BackgroundImageFix"/>
<feColorMatrix in="SourceAlpha" type="matrix" values="0 0 0 0 0 0 0 0 0 0 0 0 0 0 0 0 0 0 127 0" result="hardAlpha"/>
<feOffset dy="4"/>
<feGaussianBlur stdDeviation="2"/>
<feComposite in2="hardAlpha" operator="out"/>
<feColorMatrix type="matrix" values="0 0 0 0 0 0 0 0 0 0 0 0 0 0 0 0 0 0 0.25 0"/>
<feBlend mode="normal" in2="BackgroundImageFix" result="effect1_dropShadow_0_1"/>
<feBlend mode="normal" in="SourceGraphic" in2="effect1_dropShadow_0_1" result="shape"/>
</filter>
</defs>
</svg>
