<?xml version="1.0" encoding="utf-8"?>
<!-- Generator: Adobe Illustrator 26.5.0, SVG Export Plug-In . SVG Version: 6.00 Build 0)  -->
<svg version="1.1" id="Layer_1" xmlns="http://www.w3.org/2000/svg" xmlns:xlink="http://www.w3.org/1999/xlink" x="0px" y="0px"
	 viewBox="0 0 1366 768" style="enable-background:new 0 0 1366 768;" xml:space="preserve">
<g>
	<g>
		<path d="M708.19,549.04c-0.74-0.57-1.48-1.13-2.23-1.7c-0.37-0.28-0.74-0.57-1.11-0.86c-1.33-1.02,1.36,1.06,0.04,0.03
			c-1.48-1.15-2.96-2.3-4.44-3.46c-2.84-2.23-5.66-4.47-8.46-6.74c-5.75-4.65-11.44-9.38-17.03-14.22
			c-11.19-9.68-22.02-19.78-32.29-30.42c-5.1-5.29-10.07-10.71-14.86-16.28c-2.43-2.83-4.82-5.7-7.16-8.61
			c-1.07-1.33-2.13-2.67-3.18-4.01c-0.3-0.39-1.1-1.72,0.03,0.05c-0.25-0.38-0.57-0.74-0.85-1.11c-0.56-0.74-1.12-1.48-1.68-2.22
			c-8.66-11.58-16.51-23.78-23.19-36.61c-1.7-3.26-3.32-6.57-4.87-9.91c-0.71-1.53-1.4-3.07-2.07-4.62
			c-0.18-0.42-0.36-0.85-0.55-1.27c-0.66-1.53,0.68,1.63,0.04,0.09c-0.35-0.85-0.71-1.7-1.05-2.56c-2.71-6.73-5.09-13.6-7.09-20.57
			c-1.18-4.1-2.23-8.23-3.09-12.41c-0.41-1.98-0.77-3.97-1.08-5.97c-0.08-0.54-0.21-1.09-0.24-1.63c0.13,2.08,0.03,0.22-0.01-0.19
			c-0.13-1.09-0.24-2.18-0.34-3.28c-0.37-4.35-0.45-8.74-0.13-13.09c0.07-0.9,0.15-1.81,0.25-2.71c0.06-0.51-0.03-2.15,0.01-0.17
			c-0.01-0.51,0.17-1.11,0.25-1.61c0.35-2.04,0.79-4.07,1.34-6.06c0.41-1.51,0.89-3.01,1.42-4.49c0.29-0.8,0.6-1.59,0.91-2.38
			c0.57-1.47-0.74,1.66-0.1,0.23c0.23-0.52,0.46-1.03,0.7-1.54c1.38-2.94,2.97-5.77,4.76-8.48c0.86-1.3,1.76-2.56,2.69-3.81
			c0.94-1.26-1.12,1.39-0.13,0.17c0.27-0.33,0.53-0.67,0.8-1c0.63-0.77,1.28-1.53,1.93-2.27c2.18-2.47,4.51-4.8,6.96-7.01
			c1.18-1.06,2.39-2.09,3.62-3.09c0.34-0.27,0.68-0.54,1.02-0.81c1.24-1-1.42,1.06-0.14,0.11c0.81-0.61,1.63-1.22,2.46-1.81
			c2.73-1.95,5.55-3.77,8.45-5.46c3.03-1.76,6.14-3.39,9.31-4.87c0.66-0.31,1.32-0.61,1.99-0.91c0.56-0.25,3.36-1.29,1.01-0.45
			c1.63-0.58,3.22-1.3,4.84-1.9c7.57-2.78,15.38-4.92,23.31-6.41c1.86-0.35,3.72-0.66,5.58-0.94c0.45-0.07,1.07-0.26,1.53-0.22
			c-0.32,0.04-0.65,0.09-0.97,0.13c0.34-0.04,0.68-0.09,1.02-0.13c1.11-0.14,2.22-0.26,3.33-0.38c4.01-0.41,8.04-0.66,12.08-0.75
			c4.03-0.09,8.07-0.01,12.1,0.22c1.97,0.11,3.94,0.27,5.91,0.46c0.85,0.08,1.71,0.17,2.56,0.27c0.51,0.06,1.02,0.12,1.53,0.18
			c0.34,0.04,0.68,0.09,1.02,0.13c-1.14-0.15-1.3-0.17-0.46-0.06c7.99,1.2,15.87,2.91,23.58,5.33c3.77,1.18,7.48,2.53,11.14,4.01
			c1.61,0.65,4.36,0.16,5.78-0.76c1.39-0.9,2.42-2.05,3.07-3.59c1.49-3.52,0.09-7.31-3.07-9.37
			c-21.68-14.12-48.23-21.06-74.05-19.14c-13.89,1.03-27.5,4.22-40.71,8.53c-11.92,3.89-23.94,8.26-35.03,14.16
			c-10.71,5.7-20.42,13.35-27.22,23.5c-7.19,10.74-10.16,23.68-11.19,36.4c-0.95,11.68-0.19,23.47,1.38,35.06
			c1.41,10.39,3.73,20.67,7.24,30.56c7.36,20.75,19.52,39.69,37.73,52.47c2.05,1.44,4.17,2.77,6.35,4.01
			c1.26-4.66,2.52-9.32,3.79-13.98c-33.52,0.2-66.96,2.8-100.13,7.57c-9.26,1.33-18.49,2.85-27.69,4.54
			c-3.66,0.67-5.83,4.83-5.37,8.23c0.53,3.93,3.6,6.11,7.37,6.5c32.35,3.4,64.89-0.19,96.81-5.66
			c31.82-5.45,63.28-12.92,95.22-17.73c2.12-0.32,4.25-0.63,6.37-0.92c0.53-0.07,1.06-0.16,1.59-0.22
			c-2.24,0.26,0.22-0.03,0.66-0.08c1.06-0.14,2.13-0.27,3.19-0.4c4.43-0.54,8.86-1.02,13.31-1.42c9.06-0.82,18.14-1.3,27.23-1.37
			c-0.66-4.91-1.33-9.82-1.99-14.73c-30.25,4.14-60.49,8.28-90.74,12.42c-8.55,1.17-17.09,2.34-25.64,3.51
			c-1.65,0.23-3.73,2.03-4.48,3.45c-0.96,1.83-1.23,3.75-0.76,5.78c4.29,18.35,16.22,33.74,29.91,46.21
			c7,6.38,14.53,12.16,22.17,17.75c9.03,6.61,18.2,13.02,27.44,19.33c10.37,7.09,20.83,14.05,31.28,21.01
			c3.27,2.18,8.44,0.75,10.26-2.69c1.99-3.77,0.8-7.94-2.69-10.26c-18.22-12.13-36.44-24.26-54.2-37.05
			c-3.87-2.79-7.71-5.6-11.49-8.5c-1.04-0.8,1.32,1.03-0.12-0.1c-0.42-0.33-0.85-0.66-1.27-1c-0.85-0.67-1.69-1.34-2.53-2.02
			c-1.74-1.41-3.45-2.84-5.14-4.31c-3.36-2.92-6.62-5.95-9.71-9.16c-1.53-1.58-3.02-3.21-4.45-4.88c-0.64-0.74-1.27-1.49-1.89-2.26
			c-0.33-0.41-0.66-0.82-0.99-1.23c-0.28-0.35-0.78-1.13,0.35,0.45c-0.17-0.24-0.36-0.48-0.54-0.72c-2.89-3.87-5.48-7.97-7.63-12.3
			c-0.53-1.06-1.01-2.14-1.49-3.22c-0.33-0.75,0.34,0.83,0.32,0.77c-0.08-0.35-0.28-0.7-0.41-1.03c-0.22-0.55-0.43-1.11-0.63-1.67
			c-0.84-2.33-1.53-4.7-2.09-7.11c-1.75,3.08-3.49,6.15-5.24,9.23c30.25-4.14,60.49-8.28,90.74-12.42
			c8.55-1.17,17.09-2.34,25.64-3.51c1.65-0.23,3.73-2.03,4.48-3.45c0.8-1.51,1.12-3.08,0.89-4.78c-0.49-3.63-3.61-6.53-7.37-6.5
			c-32.72,0.24-65.12,5.93-97.14,12.22c-15.85,3.11-31.66,6.39-47.56,9.25c-7.9,1.42-15.83,2.74-23.77,3.88
			c-0.88,0.13-1.76,0.25-2.64,0.37c-0.53,0.07-1.06,0.15-1.59,0.22c2.14-0.27,0.29-0.04-0.12,0.01c-1.94,0.25-3.88,0.49-5.82,0.72
			c-4.05,0.48-8.1,0.89-12.17,1.25c-17.82,1.54-35.78,1.75-53.59-0.12c0.66,4.91,1.33,9.82,1.99,14.73
			c8.07-1.48,16.17-2.83,24.29-4.04c1.98-0.29,3.97-0.58,5.95-0.86c0.95-0.13,1.89-0.26,2.84-0.39c0.46-0.06,1.82-0.27-0.01,0
			c0.66-0.1,1.32-0.18,1.99-0.26c4.07-0.53,8.14-1.03,12.22-1.49c16.22-1.83,32.49-3.11,48.8-3.84c9.25-0.41,18.5-0.64,27.76-0.69
			c3.17-0.02,6.5-2.3,7.23-5.51c0.73-3.22-0.47-6.78-3.45-8.47c-2.18-1.24-4.3-2.57-6.35-4.01c-0.45-0.32-0.9-0.64-1.34-0.97
			c-0.22-0.16-1.98-1.48-0.89-0.66c1.09,0.82-0.58-0.48-0.85-0.7c-0.53-0.43-1.05-0.87-1.57-1.32c-3.67-3.17-7.05-6.67-10.13-10.42
			c-0.39-0.48-0.77-0.96-1.16-1.44c-0.29-0.36-0.81-1.12,0.42,0.54c-0.16-0.22-0.33-0.44-0.5-0.66c-0.78-1.04-1.54-2.1-2.28-3.18
			c-1.37-1.99-2.67-4.03-3.89-6.11c-1.27-2.16-2.46-4.36-3.57-6.6c-0.53-1.06-1.04-2.14-1.54-3.22c-0.26-0.57-0.52-1.15-0.78-1.73
			c-0.26-0.58-1.08-2.8-0.24-0.53c-1.75-4.73-3.58-9.38-4.99-14.23c-1.41-4.87-2.57-9.82-3.48-14.8c-0.47-2.53-0.85-5.07-1.22-7.62
			c0.35,2.43,0.07,0.46-0.01-0.13c-0.08-0.64-0.15-1.27-0.22-1.91c-0.15-1.34-0.28-2.69-0.4-4.03c-0.46-5.28-0.69-10.58-0.66-15.88
			c0.02-2.86,0.11-5.72,0.32-8.58c0.11-1.47,0.24-2.93,0.41-4.39c0.04-0.32,0.08-0.65,0.12-0.97c0.16-1.32-0.05,0.39-0.08,0.54
			c0.15-0.79,0.24-1.61,0.37-2.41c0.48-2.86,1.11-5.7,1.92-8.49c0.38-1.31,0.8-2.6,1.25-3.89c0.24-0.68,0.5-1.35,0.76-2.02
			c0.16-0.41,0.6-1.25-0.21,0.46c0.2-0.43,0.38-0.88,0.58-1.31c1.17-2.55,2.53-5.01,4.09-7.34c0.39-0.58,0.79-1.15,1.2-1.72
			c0.18-0.24,0.37-0.48,0.54-0.73c-1.08,1.56-0.62,0.8-0.33,0.45c0.91-1.11,1.84-2.19,2.82-3.23c1.8-1.91,3.74-3.69,5.78-5.35
			c0.29-0.24,0.59-0.47,0.88-0.7c0.75-0.61-1.22,0.92-0.44,0.35c0.55-0.4,1.09-0.81,1.65-1.21c1.11-0.79,2.25-1.55,3.4-2.28
			c4.67-2.97,9.61-5.47,14.66-7.71c0.56-0.25,1.13-0.49,1.7-0.74c1.17-0.51-0.38,0.16-0.51,0.21c0.29-0.12,0.57-0.24,0.85-0.36
			c1.35-0.56,2.71-1.1,4.07-1.64c2.8-1.09,5.62-2.14,8.45-3.16c12.28-4.42,24.86-8.19,37.79-10.13c0.58-0.09,2.73-0.18,0.71-0.11
			c0.72-0.03,1.45-0.18,2.17-0.26c1.72-0.19,3.44-0.35,5.17-0.47c3.12-0.22,6.24-0.31,9.36-0.26c2.95,0.04,5.89,0.2,8.83,0.48
			c0.75,0.07,1.51,0.15,2.26,0.23c0.42,0.05,0.84,0.1,1.25,0.15c1.14,0.13-0.34-0.21-0.49-0.07c0.21-0.2,1.66,0.24,2,0.3
			c0.83,0.13,1.66,0.27,2.49,0.42c5.97,1.07,11.86,2.62,17.58,4.63c1.27,0.45,2.54,0.91,3.79,1.4c0.71,0.28,1.41,0.57,2.11,0.85
			c1.03,0.41-1.72-0.76-0.16-0.07c0.39,0.17,0.77,0.34,1.16,0.51c2.77,1.23,5.49,2.58,8.15,4.03c2.59,1.41,5.12,2.93,7.59,4.54
			c1.93-4.57,3.85-9.14,5.78-13.71c-31.58-12.79-67.67-14.52-100.45-5.33c-14.43,4.05-28.51,10.24-40.66,19.09
			c-11.83,8.61-22.37,19.5-28.64,32.87c-3.69,7.88-5.85,16.02-6.69,24.68c-0.88,9.22,0.07,18.55,1.77,27.61
			c2.94,15.68,8.42,30.91,14.98,45.41c12.43,27.47,30.31,52.24,50.52,74.5c20.29,22.36,43.13,42.28,66.87,60.87
			c3.33,2.61,6.68,5.19,10.04,7.76c1.44,1.1,4.13,1.21,5.78,0.76c1.74-0.48,3.62-1.82,4.48-3.45c0.92-1.74,1.38-3.85,0.76-5.78
			C710.99,551.54,709.83,550.3,708.19,549.04L708.19,549.04z"/>
	</g>
</g>
</svg>
