<svg width="500" height="500" viewBox="0 0 500 500" fill="none" xmlns="http://www.w3.org/2000/svg">
<rect width="500" height="500" fill="#1E1E1E"/>
<rect width="500" height="500" fill="white"/>
<path d="M219 431C218.693 425.777 209.264 416.375 205.5 412.611C199.247 406.359 191.801 399.794 187.222 392.222C181.38 382.561 175.534 372.388 169.111 363.111C162.214 353.148 157.355 340.508 149.5 331.444C143.039 323.989 138.634 313.369 133.778 304.778C127.244 293.218 121.704 280.113 117.5 267.5C113.73 256.19 112.318 244.525 110.778 232.778C109.327 221.719 108.319 207.188 111.222 196.444C116.827 175.707 128.831 158.227 141.778 141.444C145.232 136.967 149.808 132.849 154.611 129.944C159.568 126.947 165.3 122.752 170.556 120.5C181.161 115.955 190.96 110.145 202.056 106.556C218.82 101.132 235.633 102 253 102C258.038 102 263.005 102.224 267.778 104C270.073 104.854 272.566 104.57 274.778 105.444C276.755 106.226 277.879 107.616 280 108.222C287.718 110.427 293.617 117.539 301 120" stroke="black" stroke-width="10" stroke-linecap="round"/>
<path d="M53 324C88.2926 324 123.161 312.682 157 304.222C169.725 301.041 182.927 300.493 195.667 297C210.213 293.011 226.954 293 242 293" stroke="black" stroke-width="10" stroke-linecap="round"/>
<path d="M307 286C305.012 286.249 305 316.448 305 320C305 324.106 303.528 327.109 302.556 331C301.591 334.859 301.73 338.642 300.556 342.5C297.756 351.698 296.002 362.318 295 371.833C293.164 389.276 289 406.533 289 424" stroke="black" stroke-width="10" stroke-linecap="round"/>
<path d="M312 232C305.802 232 304 233.747 304 239.5C304 244.966 306.797 244.231 311 246.222C315.98 248.581 316.075 240.987 317.056 237.556C317.984 234.305 314.185 234 311 234" stroke="black" stroke-width="10" stroke-linecap="round"/>
</svg>
