<?xml version="1.0" encoding="UTF-8"?><svg id="Layer_1" xmlns="http://www.w3.org/2000/svg" viewBox="0 0 278.96 367.3"><path d="M208.54,353.38c-3.8-2.2-7.52-4.52-11.16-6.98-1.73-1.17-3.45-2.37-5.14-3.59-.92-.67-1.84-1.34-2.76-2.02-.3-.23-.61-.46-.91-.68s-2.33-1.72-.74-.56c-7.02-5.12-13.5-11.21-19.7-17.29s-11.97-12.35-17.54-18.9c-2.86-3.37-5.65-6.79-8.38-10.26-.36-.45-.71-.91-1.07-1.36-1.21-1.54,.95,1.25-.24-.31-.59-.76-1.17-1.53-1.75-2.3-1.4-1.84-2.77-3.7-4.14-5.57-10.45-14.3-20.04-29.22-29.18-44.39-5-8.28-9.82-16.68-14.25-25.29-2.21-4.29-4.32-8.63-6.29-13.04-.43-.96-.85-1.91-1.27-2.87-.25-.58-.5-1.15-.74-1.73,.69,1.64-.12-.3-.21-.53-.95-2.32-1.87-4.66-2.73-7.01-3.22-8.74-5.82-17.72-7.55-26.87-.41-2.18-.76-4.37-1.09-6.56-.3-2.03,.19,1.63-.06-.41-.07-.6-.15-1.2-.22-1.8-.14-1.2-.26-2.41-.37-3.61-.42-4.62-.63-9.26-.63-13.9s.23-9.27,.67-13.89c.1-1,.2-2,.32-3,.07-.6,.12-1.21,.22-1.8-.33,1.94,.01-.07,.06-.4,.35-2.39,.76-4.77,1.23-7.14,1.76-8.83,4.29-17.64,7.88-25.9-.74,1.7,.08-.16,.2-.42,.24-.55,.49-1.1,.74-1.65,.42-.91,.85-1.82,1.29-2.73,.97-1.99,1.99-3.96,3.07-5.89,1.97-3.55,4.12-7,6.43-10.33,1.09-1.57,2.16-3.28,3.43-4.71-1.36,1.53,.44-.55,.79-.98,.78-.96,1.56-1.91,2.37-2.85,2.64-3.08,5.43-6.04,8.35-8.86s5.85-5.36,8.96-7.82c.36-.28,1.31-1.13-.06,.04,.4-.34,.84-.64,1.26-.96,.71-.53,1.42-1.04,2.13-1.56,1.72-1.22,3.47-2.4,5.25-3.54,3.41-2.17,6.93-4.16,10.55-5.96,1.73-.86,3.49-1.66,5.25-2.45,1.67-.75-1.55,.62,.15-.07,.49-.2,.98-.4,1.47-.59,.98-.39,1.97-.76,2.96-1.12,3.81-1.38,7.7-2.55,11.64-3.49,1.93-.46,3.87-.86,5.82-1.2,.89-.16,1.78-.3,2.67-.44,.44-.07,2.17-.51,.15-.03,.69-.16,1.45-.18,2.15-.25,8.06-.87,16.22-.8,24.27,.18,.49,.06,2.17,.01,.15,.01,.52,0,1.09,.16,1.6,.24,.89,.14,1.78,.29,2.66,.45,2.12,.39,4.24,.84,6.33,1.36,4.01,.99,7.97,2.22,11.83,3.68,.84,.32,1.67,.66,2.51,.98,1.73,.68-1.51-.67,.19,.08,.49,.22,.99,.43,1.48,.65,1.96,.89,3.89,1.83,5.79,2.84,3.64,1.93,7.15,4.1,10.51,6.48,.73,.52,1.45,1.06,2.17,1.59,1.49,1.1-1.25-1.02,.18,.14,.35,.28,.7,.56,1.05,.84,1.6,1.31,3.15,2.67,4.66,4.08,2.87,2.68,7.8,3.06,10.61,0s3.07-7.75,0-10.61C227.41,4,189-5.14,154.07,2.77s-63.1,31.2-80.16,60.99c-19.49,34.02-23.07,75.81-13,113.39,5.16,19.25,13.7,37.51,23.39,54.86,9.13,16.36,19.14,32.33,29.74,47.78,20.82,30.34,45.06,58.85,75.77,79.56,3.64,2.45,7.36,4.78,11.16,6.98,3.4,1.97,8.36,.9,10.26-2.69s.94-8.16-2.69-10.26h0Z"/><path d="M9.54,253.03c25.94-8.61,52.13-16.44,78.55-23.47,26.41-7.02,53.04-13.24,79.83-18.64,15.13-3.05,30.31-5.84,45.53-8.37,1.74-.29,3.63-1.98,4.48-3.45,.94-1.61,1.34-3.98,.76-5.78s-1.71-3.57-3.45-4.48c-1.89-1-3.68-1.1-5.78-.76-26.96,4.48-53.78,9.78-80.42,15.89-26.64,6.11-53.09,13.03-79.31,20.75-14.81,4.36-29.53,8.98-44.18,13.84-3.72,1.23-6.53,5.23-5.24,9.23,1.2,3.7,5.24,6.56,9.23,5.24h0Z"/><path d="M255.07,191.19c-1.73,10.44-3.48,20.87-5.19,31.31-1.8,10.95-3.4,21.93-4.15,33.01-.72,10.51-.93,21.06-1.27,31.58s-.68,21.29-1.02,31.93c-.39,12.06-.77,24.11-1.16,36.17-.13,3.93,3.54,7.68,7.5,7.5,4.17-.19,7.37-3.29,7.5-7.5,.49-15.22,.98-30.43,1.46-45.65,.48-15.07,.83-30.14,1.5-45.2,.38-8.44,1.03-16.85,2.15-25.23l-.27,1.99c2.07-15.36,4.88-30.64,7.42-45.93,.34-2.05,.33-3.92-.76-5.78-.91-1.56-2.69-3.04-4.48-3.45-3.62-.82-8.54,1.1-9.23,5.24h0Z"/><path d="M271.46,147.23c3.92,0,7.68-3.45,7.5-7.5s-3.3-7.5-7.5-7.5c-3.92,0-7.68,3.45-7.5,7.5s3.3,7.5,7.5,7.5h0Z"/></svg>